<?xml version="1.0" encoding="utf-8"?>
<!-- Generator: Adobe Illustrator 21.0.0, SVG Export Plug-In . SVG Version: 6.00 Build 0)  -->
<svg version="1.1" id="Layer_1" xmlns="http://www.w3.org/2000/svg" xmlns:xlink="http://www.w3.org/1999/xlink" x="0px" y="0px"
	 viewBox="0 0 500.1 105.3" style="enable-background:new 0 0 500.1 105.3;" xml:space="preserve">
<style type="text/css">
	.st0{fill:#666666;}
	.st1{fill:#EC2C26;}
</style>
<title>m360logo-ytel</title>
<g id="Layer_2-2">
	<g id="Layer_4_copy">
		<path class="st0" d="M128.5,73.4V38.5h1.8c0.5,0,0.9,0.3,1,0.8v0.1l0.3,5.1c0.7-0.9,1.4-1.8,2.2-2.6c0.8-0.8,1.6-1.4,2.5-2
			c0.9-0.6,1.8-1,2.8-1.3c1-0.3,2.1-0.5,3.1-0.5c2.3-0.1,4.4,0.7,6.1,2.2c1.6,1.7,2.7,3.9,3.1,6.2c0.4-1.3,1-2.6,1.8-3.7
			c0.7-1.1,1.6-2,2.7-2.7c1-0.7,2-1.2,3.2-1.5c1.2-0.3,2.4-0.5,3.6-0.5c1.6,0,3.2,0.3,4.7,0.9c1.4,0.6,2.6,1.4,3.5,2.5
			c1,1.2,1.8,2.6,2.3,4.1c0.5,1.8,0.8,3.7,0.8,5.6v22.3h-3.3V51.2c0-3.4-0.7-6-2.2-7.8c-1.6-1.8-3.9-2.8-6.3-2.7
			c-1.2,0-2.4,0.2-3.5,0.7c-1.1,0.4-2.2,1.1-3,2c-0.9,0.9-1.6,2.1-2,3.3c-0.5,1.5-0.8,3-0.8,4.6v22.3h-3.3V51.2
			c0.2-2.7-0.5-5.5-2-7.8c-1.4-1.8-3.6-2.9-5.9-2.8c-1.9,0-3.7,0.6-5.3,1.7c-1.7,1.3-3.2,2.9-4.3,4.7v26.4L128.5,73.4z"/>
		<path class="st0" d="M197.5,37.9c1.9,0,3.7,0.3,5.5,1c1.7,0.7,3.1,1.7,4.4,3c1.3,1.4,2.3,3,2.9,4.8c0.7,2.1,1,4.3,1,6.5
			c0,0.4,0,0.7-0.2,1c-0.2,0.2-0.4,0.3-0.7,0.3h-25.2v0.7c0,2.3,0.3,4.7,0.9,6.9c0.5,1.8,1.4,3.5,2.6,5c1.1,1.3,2.5,2.3,4.1,3
			c1.7,0.7,3.5,1,5.3,1c1.5,0,3.1-0.2,4.6-0.6c1.1-0.3,2.2-0.7,3.2-1.2c0.7-0.4,1.4-0.8,2.1-1.2c0.3-0.3,0.7-0.5,1.1-0.6
			c0.3,0,0.5,0.1,0.7,0.3l0.9,1.1c-0.6,0.7-1.4,1.4-2.2,1.9c-1,0.6-2,1.2-3.1,1.6c-1.2,0.4-2.4,0.8-3.6,1c-1.3,0.3-2.6,0.4-3.9,0.4
			c-2.2,0-4.5-0.4-6.5-1.2c-2-0.8-3.7-2-5.1-3.6c-1.5-1.7-2.6-3.7-3.3-5.8c-0.8-2.6-1.2-5.2-1.1-7.9c0-2.4,0.3-4.7,1.1-6.9
			c0.7-2,1.7-3.9,3.1-5.5c1.4-1.6,3.1-2.8,5-3.6C192.9,38.3,195.2,37.9,197.5,37.9z M197.5,40.4c-1.7,0-3.3,0.3-4.8,0.8
			c-1.4,0.6-2.7,1.4-3.7,2.5c-1.1,1.1-1.9,2.4-2.5,3.8c-0.7,1.6-1.1,3.3-1.2,5h23c0-1.7-0.2-3.4-0.8-5c-0.5-1.4-1.2-2.6-2.2-3.7
			c-0.9-1-2.1-1.8-3.4-2.4C200.5,40.8,199.1,40.5,197.5,40.4L197.5,40.4z"/>
		<path class="st0" d="M239.4,42.8c-0.1,0.3-0.4,0.5-0.8,0.5c-0.4,0-0.7-0.2-1-0.4c-0.5-0.4-1.1-0.7-1.6-1c-0.8-0.4-1.6-0.8-2.5-1
			c-1.2-0.3-2.4-0.4-3.6-0.4c-1.2,0-2.3,0.2-3.5,0.5c-1,0.3-1.9,0.8-2.7,1.5c-0.7,0.6-1.3,1.3-1.7,2.1c-0.4,0.8-0.6,1.6-0.6,2.5
			c0,1,0.3,1.9,0.8,2.7c0.6,0.8,1.4,1.4,2.2,1.8c1,0.5,2,1,3.1,1.3l3.6,1.1c1.2,0.4,2.4,0.8,3.6,1.2c1.1,0.4,2.2,1,3.2,1.7
			c0.9,0.7,1.7,1.5,2.2,2.5c0.6,1.1,0.9,2.3,0.8,3.6c0,1.5-0.3,2.9-0.8,4.2c-0.5,1.3-1.3,2.5-2.4,3.4c-1.1,1-2.4,1.8-3.8,2.3
			c-1.7,0.6-3.4,0.9-5.2,0.8c-2.2,0.1-4.3-0.4-6.4-1.2c-1.7-0.8-3.4-1.8-4.8-3.1l0.8-1.2c0.1-0.2,0.2-0.3,0.4-0.4
			c0.2-0.1,0.4-0.2,0.6-0.1c0.4,0.1,0.8,0.3,1.1,0.6c0.5,0.5,1.1,0.9,1.7,1.2c0.8,0.5,1.7,0.9,2.7,1.2c1.3,0.4,2.6,0.6,3.9,0.6
			c1.3,0,2.6-0.2,3.9-0.6c1-0.4,2-0.9,2.8-1.7c0.7-0.7,1.3-1.5,1.7-2.5c0.4-1,0.6-2,0.6-3c0-1-0.3-2.1-0.8-2.9
			c-0.6-0.8-1.3-1.5-2.2-2c-1-0.6-2-1-3.1-1.4l-3.6-1.1c-1.2-0.4-2.4-0.8-3.6-1.2c-1.1-0.4-2.1-1-3.1-1.7c-0.9-0.7-1.7-1.5-2.2-2.5
			c-0.6-1.1-0.9-2.4-0.8-3.6c0-1.2,0.3-2.5,0.8-3.6c0.5-1.2,1.3-2.2,2.3-3c1.1-0.9,2.3-1.6,3.6-2.1c1.5-0.5,3.2-0.8,4.8-0.8
			c1.9,0,3.9,0.3,5.7,0.9c1.7,0.6,3.2,1.6,4.5,2.8L239.4,42.8z"/>
		<path class="st0" d="M269.6,42.8c-0.1,0.3-0.4,0.5-0.8,0.5c-0.4,0-0.7-0.2-1-0.4c-0.5-0.4-1.1-0.7-1.6-1c-0.8-0.4-1.6-0.8-2.5-1
			c-1.2-0.3-2.4-0.5-3.6-0.4c-1.1,0-2.3,0.1-3.4,0.5c-1,0.3-1.9,0.8-2.7,1.5c-0.7,0.6-1.3,1.3-1.7,2.1c-0.4,0.8-0.6,1.6-0.6,2.5
			c0,1,0.3,1.9,0.8,2.7c0.6,0.8,1.4,1.4,2.2,1.8c1,0.5,2,1,3.1,1.3l3.6,1.1c1.2,0.4,2.4,0.8,3.6,1.2c1.1,0.4,2.1,1,3.1,1.7
			c0.9,0.7,1.7,1.5,2.2,2.5c0.6,1.1,0.9,2.3,0.8,3.6c0,1.5-0.3,2.9-0.8,4.2c-0.5,1.4-1.3,2.6-2.4,3.6c-1.1,1-2.4,1.8-3.9,2.3
			c-1.7,0.6-3.4,0.9-5.2,0.8c-2.2,0.1-4.3-0.4-6.4-1.2c-1.7-0.8-3.4-1.8-4.8-3.1l0.8-1.2c0.1-0.2,0.2-0.3,0.4-0.4
			c0.2-0.1,0.4-0.2,0.6-0.1c0.4,0.1,0.8,0.3,1.1,0.6c0.5,0.5,1.1,0.9,1.7,1.2c0.8,0.5,1.7,1,2.7,1.3c1.3,0.4,2.6,0.6,4,0.6
			c1.3,0,2.6-0.2,3.9-0.6c1-0.4,2-0.9,2.8-1.7c0.7-0.7,1.3-1.5,1.7-2.5c0.4-1,0.6-2,0.6-3c0-1-0.2-2.1-0.8-2.9
			c-0.6-0.8-1.3-1.5-2.2-2c-1-0.6-2-1-3.1-1.4l-3.6-1.1c-1.2-0.4-2.4-0.8-3.6-1.2c-1.1-0.4-2.1-1-3.1-1.7c-0.9-0.7-1.6-1.5-2.2-2.5
			c-0.6-1.1-0.9-2.4-0.8-3.6c0-1.2,0.3-2.5,0.8-3.6c0.5-1.2,1.3-2.2,2.3-3c1.1-0.9,2.3-1.6,3.6-2.1c1.5-0.5,3.2-0.8,4.8-0.8
			c1.9,0,3.9,0.3,5.7,0.9c1.7,0.6,3.2,1.6,4.5,2.8L269.6,42.8z"/>
		<path class="st0" d="M302.9,73.4c-0.6,0-1.1-0.4-1.2-1l-0.5-4.4c-0.9,0.9-1.9,1.7-2.9,2.5c-0.9,0.8-1.9,1.4-3,1.9
			c-1.1,0.5-2.2,0.9-3.3,1.2c-1.3,0.3-2.6,0.4-3.9,0.4c-1.2,0-2.3-0.2-3.5-0.5c-1.1-0.3-2.1-0.9-3-1.6c-0.9-0.8-1.6-1.7-2.1-2.8
			c-0.6-1.3-0.8-2.7-0.8-4.1c0-1.5,0.4-2.9,1.2-4.1c1-1.4,2.4-2.5,4-3.3c2.2-1.1,4.5-1.8,6.9-2.2c3.4-0.6,6.8-1,10.2-1v-3.7
			c0.2-2.6-0.6-5.3-2.1-7.4c-1.5-1.8-3.8-2.8-6.2-2.6c-1.5,0-2.9,0.2-4.3,0.7c-1.1,0.4-2.1,0.9-3,1.5c-0.7,0.5-1.4,1-2,1.5
			c-0.3,0.4-0.8,0.6-1.2,0.7c-0.4,0-0.9-0.2-1-0.6l-0.7-1c1.7-1.7,3.6-3.1,5.8-4.1c2.2-1,4.5-1.4,6.9-1.4c1.7-0.1,3.4,0.3,5,0.9
			c1.4,0.6,2.6,1.4,3.5,2.6c1,1.2,1.7,2.5,2.1,4c0.5,1.7,0.7,3.5,0.7,5.3v22.8H302.9z M288.9,71.6c1.3,0,2.5-0.1,3.7-0.4
			c1.1-0.3,2.2-0.7,3.2-1.2c1-0.5,1.9-1.2,2.7-1.9c0.8-0.7,1.7-1.5,2.5-2.4v-9.1c-2.9,0.1-5.7,0.3-8.6,0.8c-2,0.3-4,0.9-5.9,1.7
			c-1.3,0.5-2.5,1.4-3.4,2.5c-0.7,0.9-1.1,2.1-1.1,3.3c0,1,0.2,2.1,0.6,3c0.3,0.8,0.9,1.6,1.5,2.2c0.6,0.6,1.4,1,2.2,1.2
			C287.1,71.4,288,71.5,288.9,71.6L288.9,71.6z"/>
		<path class="st0" d="M326.3,37.9c1.4,0,2.9,0.2,4.2,0.6c1.2,0.3,2.4,0.9,3.5,1.6h9v1.2c0,0.6-0.3,0.9-1,0.9l-5.3,0.4
			c0.7,0.9,1.2,1.9,1.5,3c0.4,1.2,0.5,2.4,0.5,3.6c0,1.6-0.3,3.1-0.9,4.6c-0.6,1.3-1.5,2.5-2.5,3.5c-1.2,1-2.5,1.8-4,2.3
			c-1.6,0.6-3.3,0.8-5.1,0.8c-1.9,0-3.7-0.3-5.5-0.9c-0.9,0.5-1.7,1.2-2.3,2c-0.5,0.6-0.8,1.4-0.8,2.2c-0.1,0.9,0.3,1.8,1,2.3
			c0.8,0.6,1.8,1,2.8,1.2c1.3,0.3,2.7,0.4,4,0.5l4.5,0.2c1.5,0.1,3,0.2,4.5,0.4c1.4,0.2,2.7,0.5,4,1.1c1.1,0.5,2.1,1.2,2.8,2.2
			c0.7,1.1,1.1,2.4,1,3.7c0,1.5-0.4,2.9-1.1,4.2c-0.8,1.4-1.9,2.6-3.2,3.6c-1.5,1.1-3.2,1.9-5,2.5c-2.1,0.6-4.3,1-6.5,0.9
			c-2.2,0-4.3-0.2-6.5-0.8c-1.6-0.4-3.2-1.1-4.6-2c-1.1-0.8-2.1-1.8-2.8-2.9c-0.6-1.1-0.9-2.3-0.9-3.6c0-1.8,0.6-3.5,1.8-4.8
			c1.4-1.4,3.1-2.5,5-3.1c-1.1-0.3-2-0.9-2.8-1.7c-0.7-0.9-1.1-2-1-3.1c0-0.5,0.1-1.1,0.3-1.5c0.2-0.6,0.5-1.1,0.8-1.6
			c0.4-0.5,0.8-1,1.4-1.5c0.6-0.5,1.2-0.9,1.9-1.3c-1.6-0.9-2.9-2.3-3.9-3.9c-1-1.7-1.5-3.7-1.4-5.6c0-1.6,0.3-3.1,0.9-4.6
			c0.6-1.3,1.4-2.5,2.5-3.5c1.1-1,2.5-1.8,4-2.3C322.8,38.1,324.5,37.8,326.3,37.9z M339.2,75.7c0-1-0.3-1.9-0.9-2.7
			c-0.6-0.7-1.4-1.2-2.3-1.6c-1.1-0.4-2.2-0.7-3.3-0.8c-1.3-0.1-2.6-0.3-3.9-0.3l-4.1-0.2c-1.3-0.1-2.6-0.2-3.9-0.4
			c-0.9,0.3-1.7,0.8-2.5,1.2c-0.7,0.4-1.4,0.9-2,1.6c-0.5,0.6-0.9,1.2-1.2,1.9c-0.7,1.7-0.6,3.6,0.3,5.1c0.6,0.9,1.4,1.7,2.3,2.3
			c1.2,0.7,2.4,1.2,3.7,1.5c1.7,0.4,3.4,0.6,5.1,0.6c1.7,0,3.4-0.2,5-0.6c1.4-0.4,2.8-0.9,4-1.7c1.1-0.7,2-1.5,2.7-2.6
			C338.9,78.1,339.2,76.9,339.2,75.7L339.2,75.7z M326.3,58c1.4,0,2.7-0.2,4-0.7c1.1-0.4,2.1-1,3-1.8c0.8-0.8,1.3-1.8,1.7-2.8
			c0.8-2.3,0.8-4.9,0-7.2c-0.4-1.1-1-2-1.9-2.8c-0.8-0.8-1.8-1.4-2.9-1.8c-1.3-0.4-2.6-0.7-4-0.6c-1.4,0-2.7,0.2-4,0.6
			c-1.1,0.4-2.1,1-3,1.8c-0.8,0.8-1.4,1.7-1.9,2.8c-0.4,1.2-0.6,2.4-0.6,3.6c0,1.2,0.2,2.4,0.6,3.6c0.4,1.1,1,2,1.9,2.8
			c0.9,0.8,1.9,1.4,3,1.8C323.6,57.8,324.9,58,326.3,58z"/>
		<path class="st0" d="M363.3,37.9c1.9,0,3.7,0.3,5.5,1c1.7,0.7,3.1,1.7,4.4,3c1.3,1.4,2.2,3,2.9,4.8c0.7,2.1,1.1,4.3,1,6.5
			c0,0.4,0,0.7-0.2,1c-0.2,0.2-0.4,0.3-0.7,0.3h-25.2v0.7c0,2.3,0.3,4.7,0.9,6.9c0.5,1.8,1.4,3.5,2.6,5c1.1,1.3,2.5,2.3,4.1,3
			c1.7,0.7,3.5,1,5.3,1c1.5,0,3.1-0.2,4.6-0.6c1.1-0.3,2.2-0.7,3.2-1.2c0.7-0.4,1.4-0.8,2.1-1.2c0.3-0.3,0.7-0.5,1.1-0.6
			c0.3,0,0.5,0.1,0.7,0.3l0.9,1.1c-0.6,0.8-1.4,1.5-2.2,2c-1,0.6-2,1.2-3.1,1.6c-1.2,0.4-2.4,0.8-3.6,1c-1.3,0.3-2.6,0.4-3.9,0.4
			c-2.2,0-4.5-0.4-6.6-1.2c-1.9-0.8-3.6-2.1-5-3.6c-1.5-1.7-2.6-3.7-3.3-5.8c-0.8-2.6-1.2-5.2-1.1-7.9c0-2.4,0.3-4.7,1.1-6.9
			c0.7-2,1.7-3.9,3.1-5.5c1.4-1.6,3.1-2.8,5-3.6C358.8,38.4,361.1,37.9,363.3,37.9z M363.3,40.4c-1.7,0-3.3,0.3-4.8,0.8
			c-1.4,0.6-2.7,1.4-3.7,2.5c-1.1,1.1-1.9,2.4-2.5,3.8c-0.7,1.6-1.1,3.3-1.2,5h23c0-1.7-0.2-3.4-0.8-5c-0.5-1.4-1.2-2.6-2.2-3.7
			c-0.9-1-2.1-1.8-3.4-2.4C366.4,40.8,364.9,40.5,363.3,40.4L363.3,40.4z"/>
		<path class="st0" d="M401.9,23.2c1.8,0,3.6,0.3,5.4,0.8c1.6,0.5,3.1,1.3,4.4,2.4c1.3,1.1,2.3,2.4,3,3.9c0.8,1.7,1.2,3.6,1.1,5.5
			c0,1.5-0.2,3-0.8,4.4c-0.5,1.2-1.2,2.4-2,3.4c-0.9,1-1.9,1.8-3.1,2.5c-1.2,0.7-2.5,1.2-3.9,1.5c3.2,0.4,6.1,1.9,8.3,4.2
			c1.9,2.2,2.9,5.1,2.8,8c0,2-0.4,3.9-1.2,5.7c-0.8,1.7-1.9,3.3-3.4,4.5c-1.5,1.3-3.2,2.3-5.1,3c-2,0.7-4.2,1.1-6.3,1.1
			c-2.4,0.1-4.8-0.3-7.1-1.2c-3.3-1.3-6-3.8-7.4-7.1c-0.7-1.5-1.2-3-1.6-4.5l1.3-0.6c0.3-0.1,0.5-0.2,0.8-0.2c0.3,0,0.5,0.1,0.7,0.2
			c0.3,0.1,0.4,0.4,0.5,0.7l0.2,0.7c0.1,0.4,0.3,0.9,0.6,1.6c0.3,0.7,0.6,1.3,1,1.9c0.4,0.7,1,1.4,1.5,2c0.7,0.7,1.4,1.3,2.2,1.8
			c1,0.5,2,1,3.1,1.2c1.3,0.3,2.7,0.5,4.1,0.5c1.9,0,3.8-0.3,5.6-1.1c1.5-0.6,2.9-1.5,4-2.7c1-1,1.8-2.3,2.4-3.6
			c0.5-1.2,0.8-2.6,0.8-3.9c0-1.4-0.2-2.9-0.7-4.2c-0.5-1.3-1.3-2.5-2.4-3.4c-1.3-1-2.8-1.8-4.4-2.2c-2.2-0.6-4.5-0.9-6.8-0.8v-2.5
			c1.9,0,3.8-0.3,5.7-0.9c1.5-0.5,2.9-1.2,4.1-2.2c1.1-0.9,1.9-2,2.5-3.3c0.6-1.3,0.9-2.7,0.8-4.2c0-1.6-0.3-3.1-0.9-4.6
			c-0.5-1.2-1.3-2.3-2.4-3.2c-1-0.9-2.2-1.5-3.4-1.9c-1.3-0.4-2.7-0.6-4.1-0.6c-1.5,0-2.9,0.2-4.3,0.7c-2.5,0.9-4.7,2.7-6,5
			c-0.7,1.2-1.2,2.6-1.5,3.9c-0.2,0.8-0.6,1.2-1.2,1.2c-0.1,0-0.3,0-0.4,0l-1.7-0.3c0.3-2,0.8-3.9,1.8-5.7c0.8-1.6,1.9-3,3.3-4.2
			c1.4-1.2,2.9-2,4.6-2.6C398.1,23.4,400,23.1,401.9,23.2z"/>
		<path class="st0" d="M443.1,43.7c2,0,4,0.3,5.9,1c3.5,1.3,6.3,4.1,7.7,7.6c0.8,1.9,1.1,4,1.1,6.1c0,2.1-0.4,4.2-1.2,6.2
			c-0.8,1.9-1.9,3.6-3.4,5c-1.5,1.4-3.3,2.5-5.2,3.2c-2.1,0.8-4.3,1.2-6.6,1.2c-2.2,0-4.3-0.4-6.4-1.1c-1.9-0.7-3.6-1.8-5-3.2
			c-1.4-1.5-2.5-3.2-3.2-5.2c-0.8-2.2-1.2-4.5-1.1-6.9c0.1-2.3,0.6-4.5,1.5-6.6c1.3-2.9,2.9-5.7,4.9-8.2l13.5-18.3
			c0.4-0.6,1.1-0.9,1.8-0.8h3l-14.8,19.4c-0.7,1-1.4,1.9-2,2.7c-0.6,0.8-1.2,1.7-1.6,2.5c1.4-1.4,3.1-2.6,5-3.3
			C438.9,44.1,441,43.7,443.1,43.7z M429.1,58.4c0,1.7,0.3,3.5,0.9,5.1c0.5,1.5,1.4,2.9,2.5,4.1c1.1,1.2,2.4,2.1,3.9,2.7
			c1.6,0.6,3.4,1,5.1,0.9c1.9,0,3.7-0.3,5.5-0.9c1.5-0.6,2.9-1.5,4.1-2.6c1.1-1.1,2-2.5,2.6-4c0.6-1.6,0.9-3.3,0.9-5
			c0-1.8-0.3-3.5-0.9-5.2c-0.5-1.5-1.4-2.8-2.5-3.9c-1.1-1.1-2.4-1.9-3.9-2.5c-1.6-0.6-3.3-0.9-5-0.9c-1.9,0-3.8,0.3-5.5,1.1
			c-1.5,0.7-2.9,1.6-4.1,2.8C430.5,52.3,429.2,55.3,429.1,58.4L429.1,58.4z"/>
		<path class="st0" d="M500,48.5c0.1,3.8-0.4,7.6-1.4,11.3c-0.8,2.8-2.1,5.5-3.8,7.9c-1.5,2-3.4,3.6-5.7,4.7c-4.4,2-9.5,2-13.9,0
			c-2.2-1.1-4.2-2.7-5.7-4.7c-1.8-2.4-3-5.1-3.8-7.9c-1-3.7-1.5-7.5-1.4-11.3c-0.1-3.8,0.4-7.6,1.4-11.3c0.8-2.8,2.1-5.5,3.8-7.9
			c1.5-2,3.4-3.6,5.6-4.6c4.4-2,9.5-2,13.9,0c2.2,1.1,4.2,2.7,5.7,4.6c1.8,2.4,3.1,5,3.9,7.9C499.6,40.9,500.1,44.7,500,48.5z
			 M496.5,48.5c0.1-3.5-0.3-6.9-1.1-10.3c-0.6-2.5-1.7-4.9-3.1-7c-1.2-1.7-2.8-3.1-4.6-4c-3.5-1.7-7.5-1.7-11,0
			c-1.8,0.9-3.4,2.3-4.6,4c-1.4,2.1-2.5,4.5-3.1,7c-0.8,3.4-1.2,6.8-1.1,10.3c-0.1,3.5,0.4,7,1.2,10.3c0.6,2.5,1.7,4.9,3.1,7
			c1.2,1.7,2.7,3.1,4.6,4c3.5,1.7,7.5,1.7,11,0c1.8-0.9,3.4-2.3,4.6-4c1.4-2.1,2.5-4.5,3.1-7C496.2,55.5,496.6,52,496.5,48.5
			L496.5,48.5z"/>
		<path class="st1" d="M98.4,42.7V42C97,31.5,92,21.7,84.4,14.4c-4.1-4.3-9-7.7-14.4-10.1V4.1c-1.1-0.5-2.2-0.9-3.2-1.2h-0.3
			c-0.9-0.4-1.8-0.8-2.7-1c-8.3-2.4-17.7-2.4-28.3,0c-8,2.3-15.2,6.6-21,12.5c-1.3,1.4-2.6,2.7-3.9,4.1c-0.1,0.3-0.3,0.6-0.4,0.9
			C5.2,25.4,2,32.7,0.7,40.4V41C0.2,43.8,0,46.5,0,49.3c0,5,0.7,10,2.1,14.7v0.2c2.5,7.6,6.8,14.4,12.4,20.1c1.5,1.6,3.2,3,5,4.3
			l0.2,0.2c8.5,6.7,19,10.3,29.7,10.1c1.1,0,2.3-0.1,3.4-0.2h0.3c3.2-0.2,6.3-0.7,9.4-1.5c0.1,0,0.3-0.1,0.3-0.2h0.2
			c0-0.1,0.1-0.2,0.3-0.2h0.3c7.8-2.3,14.9-6.7,20.6-12.5c1.4-1.4,2.7-2.8,3.9-4.3c0-0.1,0.1-0.3,0.2-0.3c7-8.6,10.7-19.3,10.5-30.3
			C98.9,47.1,98.8,44.9,98.4,42.7z M80.8,17.8c6.7,6.4,11.1,14.8,12.5,24c-2.9,3.4-6.1,6.6-9.6,9.6c-1.1-0.8-2.4-1.2-3.8-1.2
			c-0.4,0-0.9,0-1.3,0.1c1.3-12-0.4-24.8-5-38.5C76.1,13.6,78.6,15.6,80.8,17.8L80.8,17.8z M26,60.2c-1.2-1.3-3-2-4.7-1.9h-0.5
			c1-9.6,4.7-18.7,10.6-26.3c0.2,0.1,0.4,0.2,0.6,0.3c0.4,12.1,3.4,24,8.8,34.9c-4.4,0.1-8.8-0.2-13.1-0.7c0.1-0.5,0.2-1.1,0.2-1.6
			C28,63.2,27.3,61.5,26,60.2z M37.2,32.6c0.9-0.3,1.7-0.9,2.4-1.6c0.9-0.8,1.5-1.9,1.8-3.1c13.8,4.7,24.5,12.7,32,24
			c-0.4,2.6-0.9,5.2-1.6,7.7c-7.9,4.2-16.5,6.8-25.4,7.5C40.8,56.4,37.6,44.6,37.2,32.6z M65.8,7.8c0.4,0.1,0.9,0.3,1.2,0.5
			C72,21,74.3,33,73.9,44.2c-8.1-10.3-19.1-17.6-33.1-21.8C48.3,16.3,56.7,11.4,65.8,7.8L65.8,7.8z M40.9,5.6
			c2.8-0.6,5.7-0.9,8.6-0.9c3,0,5.9,0.3,8.8,0.9C51,9,44.1,13.3,37.9,18.5c0.6-4.4,1.6-8.7,2.9-12.9H40.9z M18,17.8
			c4.8-4.9,10.7-8.5,17.2-10.6c-1.2,4.2-2,8.4-2.5,12.7c-0.3,0.1-0.5,0.2-0.8,0.3c-4.7-1.1-9.4-1.8-14.2-2.1L18,17.8z M10.6,26.2
			c5.8-1.5,11.7-2.1,17.7-1.6c-0.1,0.6-0.2,1.1-0.2,1.7c0,0.6,0.1,1.2,0.3,1.9c-6.5,8-10.7,17.6-12.2,27.7
			C12.3,51,8.9,45.9,5.8,40.6C7.1,34.1,8.7,29.3,10.6,26.2z M5,49.3v-0.5c3.1,4.7,6.5,9.2,10.2,13.5c-0.2,0.5-0.4,1-0.4,1.6
			c-2.6-0.7-5.3-1.4-8.2-2.4C5.5,57.5,5,53.4,5,49.3z M8.6,67.3c2.4,0.7,4.7,1.3,7,1.9c0.1,3.5,0.5,7,1,10.5
			C13.3,76,10.6,71.9,8.6,67.3L8.6,67.3z M52,93.9h-2.6C39.9,94.1,30.6,91,23,85.2c-1.1-4.4-1.9-8.9-2.3-13.5h0.6
			c0.7,0,1.5-0.1,2.1-0.4c8.8,8.4,18.7,15.7,29.3,21.5C52.5,93.2,52.2,93.5,52,93.9L52,93.9z M31.5,72.2c3.9,0.3,7.9,0.4,11.8,0.2
			c3,5.3,6.4,10.4,10.1,15.3C45.7,83.2,38.3,78.1,31.5,72.2z M58.7,86c-3.6-4.4-6.9-9.1-9.8-14c7.3-1,14.4-2.9,21.1-5.8
			C67.2,73.3,63.4,80,58.7,86z M80.8,80.8c-4.5,4.6-9.9,8.2-15.9,10.5c2.3-3.6,6-13.1,11.3-28.6l0.2-0.1c0.9,0.6,2,0.9,3.1,1
			c1.8,4.7,3.2,9.5,4.3,14.4L80.8,80.8z M94,49.3c0.1,8.2-2.2,16.3-6.5,23.3c-0.9-3.6-2.1-7.1-3.5-10.5c0.2-0.2,0.4-0.3,0.6-0.5
			c1.3-1.2,2-2.9,2-4.7c0-0.5-0.1-1-0.2-1.4c2.6-2.2,5.1-4.5,7.4-7L94,49.3z"/>
	</g>
</g>
</svg>
